<mxfile host="Electron" modified="2024-03-21T08:56:53.567Z" agent="Mozilla/5.0 (Windows NT 10.0; Win64; x64) AppleWebKit/537.36 (KHTML, like Gecko) draw.io/24.0.4 Chrome/120.0.6099.109 Electron/28.1.0 Safari/537.36" etag="gbxTU6ib9R6_pNxkB3UD" version="24.0.4" type="device">
  <diagram name="Pagina-1" id="CW3jcDQjhAFgXdFvOR6M">
    <mxGraphModel dx="880" dy="532" grid="1" gridSize="10" guides="1" tooltips="1" connect="1" arrows="1" fold="1" page="1" pageScale="1" pageWidth="827" pageHeight="1169" math="0" shadow="0">
      <root>
        <mxCell id="0" />
        <mxCell id="1" parent="0" />
        <mxCell id="LCViiP12B1w4xKVpy8_Q-10" style="edgeStyle=orthogonalEdgeStyle;rounded=0;orthogonalLoop=1;jettySize=auto;html=1;entryX=0;entryY=0.5;entryDx=0;entryDy=0;" parent="1" source="LCViiP12B1w4xKVpy8_Q-1" target="LCViiP12B1w4xKVpy8_Q-4" edge="1">
          <mxGeometry relative="1" as="geometry" />
        </mxCell>
        <mxCell id="LCViiP12B1w4xKVpy8_Q-11" style="edgeStyle=orthogonalEdgeStyle;rounded=0;orthogonalLoop=1;jettySize=auto;html=1;entryX=0;entryY=0.5;entryDx=0;entryDy=0;" parent="1" source="LCViiP12B1w4xKVpy8_Q-1" target="LCViiP12B1w4xKVpy8_Q-6" edge="1">
          <mxGeometry relative="1" as="geometry" />
        </mxCell>
        <mxCell id="LCViiP12B1w4xKVpy8_Q-12" style="edgeStyle=orthogonalEdgeStyle;rounded=0;orthogonalLoop=1;jettySize=auto;html=1;entryX=0;entryY=0.5;entryDx=0;entryDy=0;" parent="1" source="LCViiP12B1w4xKVpy8_Q-1" target="LCViiP12B1w4xKVpy8_Q-8" edge="1">
          <mxGeometry relative="1" as="geometry" />
        </mxCell>
        <mxCell id="LCViiP12B1w4xKVpy8_Q-32" style="edgeStyle=orthogonalEdgeStyle;rounded=0;orthogonalLoop=1;jettySize=auto;html=1;entryX=0;entryY=0.5;entryDx=0;entryDy=0;endArrow=doubleBlock;endFill=1;" parent="1" source="LCViiP12B1w4xKVpy8_Q-1" target="LCViiP12B1w4xKVpy8_Q-29" edge="1">
          <mxGeometry relative="1" as="geometry" />
        </mxCell>
        <mxCell id="LCViiP12B1w4xKVpy8_Q-1" value="Utente" style="rounded=0;whiteSpace=wrap;html=1;" parent="1" vertex="1">
          <mxGeometry y="360" width="120" height="60" as="geometry" />
        </mxCell>
        <mxCell id="LCViiP12B1w4xKVpy8_Q-19" style="edgeStyle=orthogonalEdgeStyle;rounded=0;orthogonalLoop=1;jettySize=auto;html=1;entryX=0;entryY=0.5;entryDx=0;entryDy=0;" parent="1" source="LCViiP12B1w4xKVpy8_Q-2" target="LCViiP12B1w4xKVpy8_Q-13" edge="1">
          <mxGeometry relative="1" as="geometry" />
        </mxCell>
        <mxCell id="LCViiP12B1w4xKVpy8_Q-21" style="edgeStyle=orthogonalEdgeStyle;rounded=0;orthogonalLoop=1;jettySize=auto;html=1;entryX=0;entryY=0.5;entryDx=0;entryDy=0;" parent="1" source="LCViiP12B1w4xKVpy8_Q-2" target="LCViiP12B1w4xKVpy8_Q-15" edge="1">
          <mxGeometry relative="1" as="geometry" />
        </mxCell>
        <mxCell id="LCViiP12B1w4xKVpy8_Q-22" style="edgeStyle=orthogonalEdgeStyle;rounded=0;orthogonalLoop=1;jettySize=auto;html=1;entryX=0;entryY=0.5;entryDx=0;entryDy=0;" parent="1" source="LCViiP12B1w4xKVpy8_Q-2" target="LCViiP12B1w4xKVpy8_Q-17" edge="1">
          <mxGeometry relative="1" as="geometry" />
        </mxCell>
        <mxCell id="LCViiP12B1w4xKVpy8_Q-33" style="edgeStyle=orthogonalEdgeStyle;rounded=0;orthogonalLoop=1;jettySize=auto;html=1;entryX=1;entryY=0.5;entryDx=0;entryDy=0;endArrow=doubleBlock;endFill=1;" parent="1" source="LCViiP12B1w4xKVpy8_Q-2" target="LCViiP12B1w4xKVpy8_Q-30" edge="1">
          <mxGeometry relative="1" as="geometry" />
        </mxCell>
        <mxCell id="LCViiP12B1w4xKVpy8_Q-2" value="Libro" style="rounded=0;whiteSpace=wrap;html=1;" parent="1" vertex="1">
          <mxGeometry x="602" y="360" width="120" height="60" as="geometry" />
        </mxCell>
        <mxCell id="LCViiP12B1w4xKVpy8_Q-27" style="edgeStyle=orthogonalEdgeStyle;rounded=0;orthogonalLoop=1;jettySize=auto;html=1;entryX=0;entryY=0.5;entryDx=0;entryDy=0;" parent="1" source="LCViiP12B1w4xKVpy8_Q-3" target="LCViiP12B1w4xKVpy8_Q-23" edge="1">
          <mxGeometry relative="1" as="geometry" />
        </mxCell>
        <mxCell id="LCViiP12B1w4xKVpy8_Q-31" style="edgeStyle=orthogonalEdgeStyle;rounded=0;orthogonalLoop=1;jettySize=auto;html=1;entryX=1;entryY=0.5;entryDx=0;entryDy=0;" parent="1" source="LCViiP12B1w4xKVpy8_Q-3" target="LCViiP12B1w4xKVpy8_Q-29" edge="1">
          <mxGeometry relative="1" as="geometry" />
        </mxCell>
        <mxCell id="LCViiP12B1w4xKVpy8_Q-34" value="" style="edgeStyle=orthogonalEdgeStyle;rounded=0;orthogonalLoop=1;jettySize=auto;html=1;" parent="1" source="LCViiP12B1w4xKVpy8_Q-3" target="LCViiP12B1w4xKVpy8_Q-30" edge="1">
          <mxGeometry relative="1" as="geometry" />
        </mxCell>
        <mxCell id="LCViiP12B1w4xKVpy8_Q-39" style="edgeStyle=orthogonalEdgeStyle;rounded=0;orthogonalLoop=1;jettySize=auto;html=1;entryX=0;entryY=0.5;entryDx=0;entryDy=0;" parent="1" source="LCViiP12B1w4xKVpy8_Q-3" target="LCViiP12B1w4xKVpy8_Q-37" edge="1">
          <mxGeometry relative="1" as="geometry" />
        </mxCell>
        <mxCell id="LCViiP12B1w4xKVpy8_Q-3" value="Prestito" style="rounded=0;whiteSpace=wrap;html=1;" parent="1" vertex="1">
          <mxGeometry x="290" y="360" width="120" height="60" as="geometry" />
        </mxCell>
        <mxCell id="LCViiP12B1w4xKVpy8_Q-4" value="" style="ellipse;whiteSpace=wrap;html=1;aspect=fixed;" parent="1" vertex="1">
          <mxGeometry x="120" y="450" width="30" height="30" as="geometry" />
        </mxCell>
        <mxCell id="LCViiP12B1w4xKVpy8_Q-5" value="Nome" style="text;html=1;align=center;verticalAlign=middle;resizable=0;points=[];autosize=1;strokeColor=none;fillColor=none;" parent="1" vertex="1">
          <mxGeometry x="140" y="450" width="60" height="30" as="geometry" />
        </mxCell>
        <mxCell id="LCViiP12B1w4xKVpy8_Q-6" value="" style="ellipse;whiteSpace=wrap;html=1;aspect=fixed;" parent="1" vertex="1">
          <mxGeometry x="120" y="490" width="30" height="30" as="geometry" />
        </mxCell>
        <mxCell id="LCViiP12B1w4xKVpy8_Q-7" value="Cognome" style="text;html=1;align=center;verticalAlign=middle;resizable=0;points=[];autosize=1;strokeColor=none;fillColor=none;" parent="1" vertex="1">
          <mxGeometry x="140" y="490" width="80" height="30" as="geometry" />
        </mxCell>
        <mxCell id="LCViiP12B1w4xKVpy8_Q-8" value="" style="ellipse;whiteSpace=wrap;html=1;aspect=fixed;fillColor=#CDABF7;" parent="1" vertex="1">
          <mxGeometry x="120" y="530" width="30" height="30" as="geometry" />
        </mxCell>
        <mxCell id="LCViiP12B1w4xKVpy8_Q-9" value="Email" style="text;html=1;align=center;verticalAlign=middle;resizable=0;points=[];autosize=1;strokeColor=none;fillColor=none;" parent="1" vertex="1">
          <mxGeometry x="145" y="530" width="50" height="30" as="geometry" />
        </mxCell>
        <mxCell id="LCViiP12B1w4xKVpy8_Q-13" value="" style="ellipse;whiteSpace=wrap;html=1;aspect=fixed;" parent="1" vertex="1">
          <mxGeometry x="722" y="450" width="30" height="30" as="geometry" />
        </mxCell>
        <mxCell id="LCViiP12B1w4xKVpy8_Q-14" value="Titolo" style="text;html=1;align=center;verticalAlign=middle;resizable=0;points=[];autosize=1;strokeColor=none;fillColor=none;" parent="1" vertex="1">
          <mxGeometry x="747" y="450" width="50" height="30" as="geometry" />
        </mxCell>
        <mxCell id="LCViiP12B1w4xKVpy8_Q-15" value="" style="ellipse;whiteSpace=wrap;html=1;aspect=fixed;" parent="1" vertex="1">
          <mxGeometry x="722" y="490" width="30" height="30" as="geometry" />
        </mxCell>
        <mxCell id="LCViiP12B1w4xKVpy8_Q-16" value="Anno&amp;nbsp;" style="text;html=1;align=center;verticalAlign=middle;resizable=0;points=[];autosize=1;strokeColor=none;fillColor=none;" parent="1" vertex="1">
          <mxGeometry x="752" y="490" width="50" height="30" as="geometry" />
        </mxCell>
        <mxCell id="LCViiP12B1w4xKVpy8_Q-17" value="" style="ellipse;whiteSpace=wrap;html=1;aspect=fixed;" parent="1" vertex="1">
          <mxGeometry x="722" y="530" width="30" height="30" as="geometry" />
        </mxCell>
        <mxCell id="LCViiP12B1w4xKVpy8_Q-18" value="Disponibile" style="text;html=1;align=center;verticalAlign=middle;resizable=0;points=[];autosize=1;strokeColor=none;fillColor=none;" parent="1" vertex="1">
          <mxGeometry x="747" y="530" width="80" height="30" as="geometry" />
        </mxCell>
        <mxCell id="LCViiP12B1w4xKVpy8_Q-23" value="" style="ellipse;whiteSpace=wrap;html=1;aspect=fixed;" parent="1" vertex="1">
          <mxGeometry x="410" y="450" width="30" height="30" as="geometry" />
        </mxCell>
        <mxCell id="LCViiP12B1w4xKVpy8_Q-24" value="Data inizio prestito" style="text;html=1;align=center;verticalAlign=middle;resizable=0;points=[];autosize=1;strokeColor=none;fillColor=none;" parent="1" vertex="1">
          <mxGeometry x="430" y="450" width="120" height="30" as="geometry" />
        </mxCell>
        <mxCell id="LCViiP12B1w4xKVpy8_Q-26" value="Data ritorno" style="text;html=1;align=center;verticalAlign=middle;resizable=0;points=[];autosize=1;strokeColor=none;fillColor=none;" parent="1" vertex="1">
          <mxGeometry x="430" y="490" width="90" height="30" as="geometry" />
        </mxCell>
        <mxCell id="LCViiP12B1w4xKVpy8_Q-29" value="Effettua" style="rhombus;whiteSpace=wrap;html=1;" parent="1" vertex="1">
          <mxGeometry x="180" y="360" width="60" height="60" as="geometry" />
        </mxCell>
        <mxCell id="LCViiP12B1w4xKVpy8_Q-30" value="Viene" style="rhombus;whiteSpace=wrap;html=1;" parent="1" vertex="1">
          <mxGeometry x="480" y="360" width="60" height="60" as="geometry" />
        </mxCell>
        <mxCell id="LCViiP12B1w4xKVpy8_Q-35" value="" style="endArrow=none;html=1;rounded=0;" parent="1" edge="1">
          <mxGeometry width="50" height="50" relative="1" as="geometry">
            <mxPoint x="580" y="405" as="sourcePoint" />
            <mxPoint x="580" y="375" as="targetPoint" />
          </mxGeometry>
        </mxCell>
        <mxCell id="LCViiP12B1w4xKVpy8_Q-36" value="" style="endArrow=none;html=1;rounded=0;" parent="1" edge="1">
          <mxGeometry width="50" height="50" relative="1" as="geometry">
            <mxPoint x="134.70999999999998" y="405" as="sourcePoint" />
            <mxPoint x="134.70999999999998" y="375" as="targetPoint" />
          </mxGeometry>
        </mxCell>
        <mxCell id="LCViiP12B1w4xKVpy8_Q-37" value="" style="ellipse;whiteSpace=wrap;html=1;aspect=fixed;" parent="1" vertex="1">
          <mxGeometry x="410" y="490" width="30" height="30" as="geometry" />
        </mxCell>
        <mxCell id="LCViiP12B1w4xKVpy8_Q-40" value="" style="endArrow=none;html=1;rounded=0;" parent="1" edge="1">
          <mxGeometry width="50" height="50" relative="1" as="geometry">
            <mxPoint x="370" y="520" as="sourcePoint" />
            <mxPoint x="370" y="490" as="targetPoint" />
          </mxGeometry>
        </mxCell>
      </root>
    </mxGraphModel>
  </diagram>
</mxfile>
